<svg width="60" height="60" viewBox="0 0 60 60" fill="none" xmlns="http://www.w3.org/2000/svg">
<path fill-rule="evenodd" clip-rule="evenodd" d="M27.2413 0.0240856C27.0475 0.0509705 26.2969 0.154049 25.5733 0.25337C24.8496 0.352574 23.6342 0.586672 22.8723 0.773457C22.1104 0.96036 20.853 1.33064 20.0779 1.59644C19.3029 1.86212 17.8146 2.49667 16.7705 3.00666C15.7265 3.51654 14.2078 4.38167 13.3955 4.92899C12.5834 5.47643 11.5087 6.25762 11.0075 6.665C10.5063 7.07227 9.60365 7.8801 9.00158 8.45995C8.39939 9.03991 7.47462 10.0362 6.94653 10.6741C6.41833 11.312 5.54652 12.476 5.00915 13.2608C4.4631 14.0582 3.59763 15.5681 3.04711 16.6836C2.50528 17.7813 1.84508 19.3133 1.58004 20.0882C1.315 20.863 0.946379 22.1152 0.760955 22.8709C0.575531 23.6267 0.328455 24.8418 0.211846 25.5712C0.046268 26.6074 0 27.5779 0 30.0086C0 32.4393 0.046268 33.4098 0.211846 34.446C0.328455 35.1754 0.575531 36.3905 0.760955 37.1462C0.946379 37.9019 1.315 39.1541 1.58004 39.929C1.84508 40.7038 2.50528 42.2359 3.04711 43.3336C3.59763 44.449 4.4631 45.9589 5.00915 46.7563C5.54652 47.5412 6.41833 48.7052 6.94653 49.343C7.47462 49.981 8.39939 50.9773 9.00158 51.5572C9.60365 52.1371 10.5135 52.9507 11.0234 53.3652C11.5333 53.7796 12.6166 54.5643 13.4307 55.109C14.2449 55.6535 15.7565 56.5127 16.7899 57.0184C17.8233 57.524 19.3017 58.1539 20.0755 58.4183C20.8491 58.6825 21.9904 59.0276 22.6116 59.185C23.2329 59.3424 24.423 59.5895 25.2563 59.734C26.5672 59.9612 27.1991 59.9971 29.9422 59.9999C32.4478 60.0025 33.391 59.9586 34.4394 59.7907C35.169 59.6738 36.3845 59.4264 37.1404 59.241C37.8963 59.0556 39.1488 58.6865 39.9238 58.4207C40.6989 58.1551 42.1785 57.524 43.2119 57.0184C44.2453 56.5127 45.7569 55.6535 46.571 55.109C47.3852 54.5643 48.4685 53.7794 48.9784 53.3647C49.4883 52.95 50.3748 52.161 50.9482 51.6116C51.5217 51.062 52.4354 50.0842 52.9788 49.4385C53.5221 48.7928 54.4462 47.5513 55.0322 46.6796C55.6183 45.8079 56.5116 44.2494 57.0175 43.2162C57.5233 42.1831 58.1534 40.705 58.4179 39.9315C58.6822 39.158 59.0273 38.017 59.1848 37.3959C59.3423 36.7749 59.5894 35.585 59.7339 34.7519C59.9611 33.4414 59.9971 32.8097 59.9999 30.0673C60.0025 27.5623 59.9586 26.6193 59.7906 25.5712C59.6737 24.8418 59.4262 23.6267 59.2408 22.8709C59.0554 22.1152 58.6862 20.863 58.4203 20.0882C58.1546 19.3133 57.5234 17.8341 57.0176 16.801C56.5118 15.7678 55.6524 14.2566 55.1077 13.4427C54.5629 12.6287 53.7778 11.5457 53.363 11.036C52.9481 10.5262 52.159 9.63995 51.6094 9.06668C51.0597 8.49329 50.0816 7.57897 49.4358 7.0347C48.7899 6.49054 47.5511 5.56742 46.6828 4.98335C45.8068 4.39399 44.265 3.51125 43.2186 2.99985C42.1816 2.49303 40.646 1.84533 39.8064 1.56063C38.9668 1.27582 37.6985 0.904947 36.9881 0.736476C36.2776 0.567888 35.1679 0.344473 34.522 0.239986C33.7384 0.113193 32.3905 0.0375867 30.4706 0.0125803C28.8882 -0.00796493 27.435 -0.00279928 27.2413 0.0240856ZM44.1846 18.3343C44.3286 18.4351 44.5253 18.6702 44.6218 18.8568C44.7183 19.0433 44.7972 19.4204 44.7972 19.6947C44.7972 19.9689 43.6587 25.556 42.2673 32.1103C40.8759 38.6647 39.6387 44.2505 39.518 44.5232C39.3835 44.8271 39.1603 45.0908 38.9418 45.2037C38.7455 45.3051 38.4487 45.3881 38.2819 45.3881C38.1152 45.3881 37.7932 45.3107 37.5663 45.2159C37.3395 45.1212 35.4623 43.794 33.3948 42.2666L29.6354 39.4894L29.3191 39.7679C29.145 39.9211 28.2082 40.8178 27.237 41.7607C26.0024 42.9595 25.3379 43.519 25.0273 43.6214C24.7832 43.702 24.565 43.7495 24.5426 43.7269C24.5201 43.7043 24.6221 41.9834 24.7692 39.9027L25.0366 36.1196L25.6105 35.6035C25.9261 35.3196 29.0908 32.4639 32.6431 29.2576C36.2848 25.9706 39.1181 23.3268 39.1394 23.1961C39.1709 23.0013 39.1093 22.9645 38.7506 22.9645C38.3909 22.9645 36.9676 23.8183 29.648 28.4248C24.8761 31.4281 20.9027 33.9101 20.8183 33.9405C20.734 33.9708 18.9289 33.4482 16.8069 32.7789C14.6849 32.1097 12.8089 31.4584 12.6381 31.3315C12.441 31.1851 12.3141 30.9659 12.2907 30.7319C12.263 30.4537 12.3316 30.2914 12.5702 30.0702C12.7441 29.9091 13.0952 29.6841 13.3505 29.5701C13.6057 29.4561 20.3234 26.8459 28.2784 23.7695C40.0672 19.2107 42.8514 18.174 43.3325 18.1636C43.6959 18.1559 44.0236 18.2216 44.1846 18.3343Z" fill="black"/>
</svg>
