<svg width="60" height="60" viewBox="0 0 60 60" fill="none" xmlns="http://www.w3.org/2000/svg">
<path fill-rule="evenodd" clip-rule="evenodd" d="M27.2424 0.0239746C27.0487 0.0508574 26.4674 0.128806 25.9508 0.197128C25.4341 0.265568 24.483 0.429095 23.8371 0.560692C23.1913 0.692171 22.071 0.978725 21.3475 1.19731C20.6241 1.41589 19.488 1.81045 18.8229 2.07411C18.1578 2.33766 16.9589 2.89386 16.1588 3.31002C15.3585 3.72617 14.1746 4.41327 13.528 4.83682C12.8812 5.26049 11.8451 6.01039 11.2253 6.50332C10.6055 6.99625 9.62926 7.85063 9.05588 8.40179C8.48238 8.95294 7.56729 9.93223 7.02233 10.5779C6.47736 11.2235 5.56462 12.4505 4.99406 13.3046C4.42349 14.1585 3.66599 15.4263 3.31066 16.122C2.95545 16.8175 2.45053 17.9025 2.18867 18.533C1.92682 19.1635 1.54765 20.1936 1.34615 20.8221C1.14465 21.4506 0.856023 22.4932 0.704663 23.1389C0.553421 23.7845 0.332898 24.8939 0.214769 25.6041C0.0446212 26.6274 0 27.5411 0 30.0063C0 32.4715 0.0446212 33.3852 0.214769 34.4085C0.332898 35.1187 0.553773 36.2281 0.705485 36.8737C0.857198 37.5194 1.12328 38.4967 1.29683 39.0455C1.47027 39.5943 1.82137 40.5716 2.07688 41.2173C2.3324 41.8629 2.88465 43.0515 3.30397 43.8586C3.72341 44.6656 4.45355 45.9078 4.92654 46.6188C5.39952 47.3299 6.14481 48.36 6.58269 48.908C7.02068 49.456 8.04439 50.5646 8.8579 51.3717C9.6713 52.1787 10.8644 53.2413 11.5093 53.7328C12.1542 54.2243 13.1413 54.9257 13.7029 55.2915C14.2646 55.6573 15.3742 56.2946 16.1689 56.7079C16.9635 57.1211 18.1421 57.6682 18.7879 57.9237C19.4337 58.1791 20.4113 58.5301 20.9602 58.7035C21.5092 58.877 22.4868 59.143 23.1326 59.2947C23.7784 59.4464 24.8881 59.6672 25.5985 59.7853C26.6221 59.9554 27.536 60 30.0019 60C32.4678 60 33.3817 59.9554 34.4053 59.7853C35.1157 59.6672 36.2254 59.4467 36.8712 59.2955C37.5171 59.1442 38.5599 58.8557 39.1886 58.6542C39.8173 58.4528 40.8477 58.0737 41.4784 57.8119C42.1091 57.5501 43.1997 57.0425 43.9021 56.684C44.6046 56.3255 45.8562 55.5778 46.6836 55.0226C47.5108 54.4673 48.7186 53.5723 49.3675 53.0336C50.0164 52.4949 51.0781 51.4983 51.7268 50.819C52.3756 50.1396 53.3692 48.9692 53.9348 48.2179C54.5004 47.4667 55.2607 46.371 55.6244 45.783C55.9882 45.195 56.5245 44.2385 56.8166 43.6572C57.1085 43.0762 57.5598 42.0904 57.8194 41.4669C58.0789 40.8435 58.4562 39.819 58.6577 39.1905C58.8592 38.562 59.1478 37.5194 59.2992 36.8737C59.4504 36.2281 59.6709 35.1187 59.7891 34.4085C59.961 33.3751 60.003 32.484 59.9998 29.9476C59.9964 27.2075 59.9603 26.5728 59.7332 25.2633C59.5886 24.4303 59.3416 23.2405 59.1841 22.6195C59.0266 21.9985 58.6815 20.8576 58.4172 20.0842C58.1527 19.3107 57.5226 17.8327 57.0169 16.7997C56.511 15.7666 55.6178 14.2082 55.0317 13.3366C54.4458 12.465 53.5218 11.2235 52.9784 10.5779C52.4351 9.93223 51.5214 8.95447 50.9479 8.40496C50.3746 7.85556 49.4881 7.06668 48.9783 6.65194C48.4684 6.23731 47.3852 5.45242 46.5711 4.90784C45.757 4.36338 44.2455 3.50383 43.2121 2.99799C42.1788 2.49215 40.6464 1.8452 39.8068 1.56052C38.9673 1.27573 37.6991 0.904886 36.9887 0.736428C36.2782 0.567853 35.1686 0.344455 34.5227 0.239976C33.7392 0.113193 32.3914 0.0375921 30.4716 0.0125876C28.8893 -0.00795605 27.4362 -0.00279079 27.2424 0.0239746ZM31.3134 20.3806C31.7441 20.4429 32.2341 20.5566 32.4024 20.6332C32.5708 20.7099 32.8261 20.9617 32.9698 21.1927C33.2265 21.6055 33.2311 21.6821 33.2311 25.6041C33.2311 29.095 33.2559 29.6501 33.4288 30.0314C33.5549 30.3096 33.7318 30.4939 33.917 30.5403C34.0767 30.5805 34.3185 30.5537 34.4545 30.4809C34.5906 30.4081 35.0941 29.8774 35.5737 29.3014C36.0533 28.7253 36.6527 27.9484 36.906 27.5747C37.1592 27.2011 37.6372 26.4142 37.9682 25.8261C38.2994 25.2378 38.8622 24.0756 39.2189 23.2434C39.5918 22.3735 39.9947 21.6179 40.1666 21.466C40.4635 21.2039 40.4937 21.2019 44.1875 21.2036C46.9516 21.2049 47.9846 21.2436 48.2027 21.3538C48.3641 21.4354 48.5624 21.6401 48.6433 21.8087C48.7668 22.0664 48.7532 22.2339 48.5575 22.8617C48.4295 23.2724 48.0843 24.031 47.7904 24.5476C47.4964 25.0641 46.3562 26.7017 45.2564 28.1867C44.1567 29.6717 43.128 31.136 42.9704 31.4405C42.8127 31.745 42.6837 32.1729 42.6837 32.3914C42.6837 32.642 42.8076 32.9594 43.0193 33.2516C43.2039 33.5063 43.7999 34.1197 44.3438 34.6146C44.8876 35.1096 45.7975 36.0354 46.3657 36.6722C46.9339 37.3088 47.6531 38.1958 47.964 38.6431C48.2748 39.0903 48.5929 39.6703 48.671 39.9316C48.789 40.3272 48.7821 40.4803 48.6295 40.8451C48.4938 41.1699 48.316 41.3426 47.9429 41.5119C47.4876 41.7185 47.1582 41.7406 44.4991 41.7429C42.2334 41.7449 41.3983 41.7042 40.859 41.5656C40.474 41.4666 39.8944 41.2048 39.5709 40.9838C39.2474 40.7628 38.3804 39.9325 37.644 39.1387C36.9078 38.3449 36.075 37.5014 35.7936 37.2642C35.5122 37.0269 35.118 36.7968 34.9176 36.7528C34.6495 36.6939 34.4719 36.7328 34.2445 36.9003C34.0682 37.0301 33.8524 37.3756 33.7418 37.7051C33.6351 38.0227 33.4838 38.7051 33.4053 39.2216C33.327 39.7381 33.2029 40.3673 33.1296 40.6198C33.0537 40.8813 32.8531 41.1845 32.6639 41.3242C32.3533 41.5533 32.1877 41.5687 30.1393 41.5585C28.1693 41.5488 27.8305 41.5166 26.7989 41.2417C26.1674 41.0733 25.149 40.698 24.5357 40.4076C23.9224 40.1172 23.0123 39.591 22.5133 39.2385C22.0144 38.8858 21.2793 38.3008 20.88 37.9383C20.4807 37.5756 19.8141 36.8709 19.3987 36.372C18.9833 35.8732 18.2967 34.9833 17.8729 34.3943C17.4491 33.8055 16.7091 32.6961 16.2286 31.9291C15.748 31.1621 14.9494 29.7884 14.454 28.8764C13.9585 27.9644 13.0465 26.1419 12.4274 24.8264C11.681 23.2404 11.2975 22.2869 11.2893 21.9964C11.2819 21.7381 11.3534 21.4817 11.4635 21.3717C11.5976 21.2376 11.9608 21.1689 12.7531 21.1278C13.3597 21.0963 14.871 21.1145 16.1113 21.1682C18.1081 21.2546 18.4043 21.2933 18.6947 21.5063C18.8751 21.6386 19.1377 21.9808 19.2781 22.2667C19.4186 22.5527 19.9277 23.6055 20.4096 24.6063C20.8917 25.607 21.7071 27.0597 22.2218 27.8345C22.7366 28.6093 23.3827 29.496 23.6577 29.8048C23.9326 30.1136 24.3127 30.4465 24.5022 30.5445C24.6932 30.6433 24.954 30.6888 25.0866 30.6467C25.2185 30.6049 25.3948 30.404 25.4784 30.2005C25.5619 29.9968 25.6961 29.4557 25.7765 28.9981C25.8748 28.4395 25.9056 27.3981 25.87 25.8285C25.8269 23.9201 25.7795 23.4121 25.6115 23.0615C25.4983 22.8252 25.3039 22.5398 25.1795 22.4272C25.0551 22.3146 24.6757 22.1289 24.3364 22.0146C23.9125 21.8717 23.7088 21.7364 23.6846 21.5818C23.6626 21.4404 23.8228 21.2005 24.1159 20.9358C24.4624 20.6228 24.7276 20.4951 25.149 20.4381C25.4608 20.3961 25.7688 20.3436 25.8333 20.3214C25.8979 20.2994 26.9812 20.2781 28.2405 20.2744C29.4999 20.2705 30.8827 20.3184 31.3134 20.3806Z" fill="black"/>
</svg>
