<svg xmlns="http://www.w3.org/2000/svg">
    <symbol id="money" viewBox="0 0 49 56">
        <path d="M28.0008 7.80039C28.0008 11.335 21.9119 14.2004 14.4008 14.2004C6.88971 14.2004 0.800781 11.335 0.800781 7.80039M28.0008 7.80039C28.0008 4.26577 21.9119 1.40039 14.4008 1.40039C6.88971 1.40039 0.800781 4.26577 0.800781 7.80039M28.0008 7.80039V30.3604M0.800781 7.80039V43.8004C0.800781 47.335 6.88971 50.2004 14.4008 50.2004C17.7699 50.2004 20.8529 49.6239 23.2286 48.669M0.800781 15.0004C0.800781 18.535 6.88971 21.4004 14.4008 21.4004C21.9119 21.4004 28.0008 18.535 28.0008 15.0004M5.96797 34.422C8.28581 35.2851 11.2153 35.8004 14.4006 35.8004C18.2205 35.8004 21.6725 35.0593 24.1429 33.866M0.800781 22.2004C0.800781 25.735 6.88971 28.6004 14.4008 28.6004C16.7254 28.6004 18.9138 28.3259 20.8277 27.8421M0.800781 36.6004C0.800781 40.135 6.88971 43.0004 14.4008 43.0004C17.019 43.0004 19.4645 42.6522 21.5395 42.0489M34.8012 49.605V47.3133M34.8012 35.242V33.6031M38.175 35.8047H34.8071C34.8071 35.8047 30.7458 35.8036 30.8017 38.6849C30.8577 41.5661 34.8071 41.3392 34.8071 41.3392C34.8071 41.3392 38.8036 41.2742 38.7815 44.0959C38.7594 46.9177 34.8071 46.8708 34.8071 46.8708H31.3318M34.8008 55.0004C42.0909 55.0004 48.0008 49.0906 48.0008 41.8004C48.0008 34.5102 42.0909 28.6004 34.8008 28.6004C27.5106 28.6004 21.6008 34.5102 21.6008 41.8004C21.6008 49.0906 27.5106 55.0004 34.8008 55.0004Z" fill="none" stroke-width="1.6" stroke-linecap="round"/>
    </symbol>
    <symbol id="pen" viewBox="0 0 22 22">
        <path d="M20.575 1.42401C18.6812 -0.474668 15.6015 -0.474668 13.7078 1.42401L1.11707 14.0115C1.01863 14.11 0.957694 14.2365 0.938944 14.3725L0.00612607 21.2827C-0.0219991 21.4796 0.0483138 21.6765 0.184252 21.8125C0.30144 21.9297 0.465504 22 0.629567 22C0.657692 22 0.685817 22 0.713943 21.9953L4.87647 21.4327C5.22334 21.3859 5.46709 21.0671 5.42022 20.7202C5.37334 20.3732 5.05459 20.1295 4.70772 20.1763L1.3702 20.6264L2.02176 15.807L7.09367 20.8795C7.21085 20.9967 7.37492 21.0671 7.53898 21.0671C7.70304 21.0671 7.86711 21.0014 7.9843 20.8795L20.575 8.29205C21.4937 7.37318 22 6.15428 22 4.85568C22 3.55708 21.4937 2.33818 20.575 1.42401ZM13.9515 2.97107L16.0656 5.0854L4.57646 16.5759L2.46239 14.4616L13.9515 2.97107ZM7.54367 19.5388L5.47647 17.4713L16.9656 5.98082L19.0328 8.04827L7.54367 19.5388ZM19.9141 7.14347L14.8562 2.08502C15.4984 1.55527 16.3 1.26461 17.1437 1.26461C18.1047 1.26461 19.0047 1.63966 19.6844 2.31474C20.3641 2.98982 20.7344 3.89462 20.7344 4.85568C20.7344 5.70422 20.4437 6.5012 19.9141 7.14347Z" stroke="none"/>
    </symbol>

</svg>
